<?xml version="1.0" encoding="utf-8"?>
<!-- Generator: Adobe Illustrator 27.5.0, SVG Export Plug-In . SVG Version: 6.00 Build 0)  -->
<svg version="1.1" xmlns="http://www.w3.org/2000/svg" xmlns:xlink="http://www.w3.org/1999/xlink" x="0px" y="0px"
	 viewBox="0 0 500 500" style="enable-background:new 0 0 500 500;" xml:space="preserve">
<g id="Floor">
	<g id="Layer-4">
		
			<path style="fill:none;stroke:#263238;stroke-width:2;stroke-linecap:round;stroke-linejoin:round;stroke-miterlimit:11.9056;" d="
			M474.111,438.277h-50.844h-124.12H30.859"/>
	</g>
</g>
<g id="Sparkles">
	<g>
		<g>
			
				<path style="fill:none;stroke:#263238;stroke-width:2;stroke-linecap:round;stroke-linejoin:round;stroke-miterlimit:11.9056;" d="
				M51.642,190.792v3.928"/>
			
				<path style="fill:none;stroke:#263238;stroke-width:2;stroke-linecap:round;stroke-linejoin:round;stroke-miterlimit:11.9056;" d="
				M51.642,199.15v3.928"/>
			
				<path style="fill:none;stroke:#263238;stroke-width:2;stroke-linecap:round;stroke-linejoin:round;stroke-miterlimit:11.9056;" d="
				M57.785,196.935h-3.928"/>
			
				<path style="fill:none;stroke:#263238;stroke-width:2;stroke-linecap:round;stroke-linejoin:round;stroke-miterlimit:11.9056;" d="
				M49.428,196.935H45.5"/>
		</g>
		<g>
			
				<path style="fill:none;stroke:#263238;stroke-width:2;stroke-linecap:round;stroke-linejoin:round;stroke-miterlimit:11.9056;" d="
				M464.816,132.614v3.928"/>
			
				<path style="fill:none;stroke:#263238;stroke-width:2;stroke-linecap:round;stroke-linejoin:round;stroke-miterlimit:11.9056;" d="
				M464.816,140.971v3.928"/>
			
				<path style="fill:none;stroke:#263238;stroke-width:2;stroke-linecap:round;stroke-linejoin:round;stroke-miterlimit:11.9056;" d="
				M470.959,138.756h-3.927"/>
			
				<path style="fill:none;stroke:#263238;stroke-width:2;stroke-linecap:round;stroke-linejoin:round;stroke-miterlimit:11.9056;" d="
				M462.602,138.756h-3.928"/>
		</g>
		<g>
			
				<path style="fill:none;stroke:#263238;stroke-width:2;stroke-linecap:round;stroke-linejoin:round;stroke-miterlimit:11.9056;" d="
				M113.651,351.093v3.928"/>
			
				<path style="fill:none;stroke:#263238;stroke-width:2;stroke-linecap:round;stroke-linejoin:round;stroke-miterlimit:11.9056;" d="
				M113.651,359.45v3.927"/>
			
				<path style="fill:none;stroke:#263238;stroke-width:2;stroke-linecap:round;stroke-linejoin:round;stroke-miterlimit:11.9056;" d="
				M119.794,357.235h-3.928"/>
			
				<path style="fill:none;stroke:#263238;stroke-width:2;stroke-linecap:round;stroke-linejoin:round;stroke-miterlimit:11.9056;" d="
				M111.437,357.235h-3.928"/>
		</g>
	</g>
</g>
<g id="Plant">
	<g>
		<path style="fill:#263238;" d="M71.711,373.475c4.301,2.534,8.773,8.116,11.592,13.104c1.004,1.776,2.07,4.931,2.56,6.79
			c1.226,4.649,1.271,10.174,0.737,10.479c-1.135,0.646-6.259-5.402-7.494-7.175c-3.434-4.933-6.207-9.3-7.349-14.973
			C71.538,380.609,70.312,372.65,71.711,373.475z"/>
		<path style="fill:#263238;" d="M65.777,403.9c4.286,0.633,9.916,3.599,14.049,6.62c1.472,1.075,3.54,3.21,4.654,4.513
			c2.785,3.256,5.019,7.568,4.733,7.974c-0.607,0.861-6.919-2.264-8.566-3.265c-4.58-2.783-8.432-5.332-11.56-9.416
			C68.487,409.541,64.383,403.694,65.777,403.9z"/>
		<path style="fill:#263238;" d="M98.762,391.733c1.296,3.146,1.078,8.269,0.16,12.42c-0.327,1.478-1.348,3.844-2.035,5.188
			c-1.717,3.362-4.624,6.846-5.114,6.844c-1.04-0.005-0.975-5.655-0.791-7.216c0.511-4.338,1.128-8.083,3.44-12.058
			C94.866,396.149,98.341,390.709,98.762,391.733z"/>
		
			<path style="fill:none;stroke:#263238;stroke-width:2;stroke-linecap:round;stroke-linejoin:round;stroke-miterlimit:11.9056;" d="
			M85.568,401.925c0,0,2.785,6.878,4.497,15.212c2.015,9.808,2.845,20.481,2.845,20.481"/>
	</g>
</g>
<g id="Shield">
	<g>
		<path style="fill:#FF367C;" d="M81.586,37.809c0,0-8.932,16.677-18.749,25.876c-9.817,9.2-31.978,19.332-31.978,19.332
			s7.011,47.805,18.154,61.768c11.143,13.964,32.573,27.899,32.573,27.899s19.92-11.803,31.603-28.483
			c11.682-16.68,21.114-61.184,21.114-61.184s-22.434-9.946-32.597-19.332C91.543,54.299,81.586,37.809,81.586,37.809z"/>
		
			<path style="fill:none;stroke:#FFFFFF;stroke-width:2;stroke-linecap:round;stroke-linejoin:round;stroke-miterlimit:11.9056;" d="
			M81.174,54.299c0,0-7.19,13.116-15.092,20.351c-7.902,7.235-25.74,15.204-25.74,15.204s6.661,38.786,15.631,49.767
			c8.97,10.982,25.202,21.176,25.202,21.176s16.034-9.283,25.438-22.401c9.405-13.118,16.995-48.543,16.995-48.543
			s-18.057-7.822-26.238-15.204C89.188,67.268,81.174,54.299,81.174,54.299z"/>
		<path style="fill:#263238;" d="M61.746,102.406c0-1.927,1.563-3.49,3.49-3.49h33.478c1.928,0,3.491,1.563,3.491,3.49v20.765
			c0,1.927-1.562,3.489-3.491,3.489H65.236c-1.928,0-3.49-1.562-3.49-3.489V102.406z"/>
		
			<path style="fill:none;stroke:#263238;stroke-width:2;stroke-linecap:round;stroke-linejoin:round;stroke-miterlimit:11.9056;" d="
			M70.528,105.564c0,0,2.496-17.419,11.568-17.772c9.072-0.353,11.914,18.223,11.914,18.223"/>
		<path style="fill:#FFFFFF;" d="M82.265,104.75c-2.461,0-4.466,2.005-4.466,4.465c0,1.777,1.072,3.279,2.577,3.994l-1.16,7.644
			h6.098l-1.202-7.602c1.551-0.697,2.619-2.225,2.619-4.037C86.731,106.756,84.726,104.75,82.265,104.75z"/>
	</g>
</g>
<g id="Tabs">
	<g>
		<path style="fill:#FFC051;" d="M334.277,36.923h105.808c0,0,1.301-4.208,0.163-7.758c-1.139-3.55-2.856-3.996-2.856-3.996
			l-100.987-0.382c0,0-1.274,0.732-2.378,4.378C332.924,32.811,334.277,36.923,334.277,36.923z"/>
		
			<path style="fill:none;stroke:#FFC051;stroke-width:2;stroke-linecap:round;stroke-linejoin:round;stroke-miterlimit:11.9056;" d="
			M334.027,30.212c0-2.664,2.159-4.823,4.823-4.823h96.574c2.663,0,4.823,2.159,4.823,4.823v37.899c0,2.664-2.16,4.823-4.823,4.823
			H338.85c-2.665,0-4.823-2.159-4.823-4.823V30.212z"/>
		<path style="fill:#FFFFFF;" d="M342.014,31.464c0-0.901,0.682-1.631,1.523-1.631c0.841,0,1.522,0.73,1.522,1.631
			c0,0.901-0.681,1.631-1.522,1.631C342.697,33.095,342.014,32.365,342.014,31.464z"/>
		<path style="fill:#FFFFFF;" d="M347.878,31.464c0-0.901,0.682-1.631,1.523-1.631c0.841,0,1.523,0.73,1.523,1.631
			c0,0.901-0.682,1.631-1.523,1.631C348.56,33.095,347.878,32.365,347.878,31.464z"/>
		<path style="fill:#FFFFFF;" d="M353.742,31.464c0-0.901,0.682-1.631,1.523-1.631c0.84,0,1.523,0.73,1.523,1.631
			c0,0.901-0.682,1.631-1.523,1.631C354.424,33.095,353.742,32.365,353.742,31.464z"/>
		
			<path style="fill:none;stroke:#FFC051;stroke-width:2;stroke-linecap:round;stroke-linejoin:round;stroke-miterlimit:11.9056;" d="
			M353.588,44.375h67.098"/>
		
			<path style="fill:none;stroke:#FFC051;stroke-width:2;stroke-linecap:round;stroke-linejoin:round;stroke-miterlimit:11.9056;" d="
			M353.742,52.053h67.098"/>
		
			<path style="fill:none;stroke:#FFC051;stroke-width:2;stroke-linecap:round;stroke-linejoin:round;stroke-miterlimit:11.9056;" d="
			M353.742,59.732h67.098"/>
		<path style="fill:#263238;" d="M64.693,253.209h118.439c0,0,1.457-4.396,0.182-8.104c-1.273-3.708-5.389-3.945-5.389-3.945
			l-108.036-0.563c0,0-4.242,0.7-5.477,4.508C63.177,248.913,64.693,253.209,64.693,253.209z"/>
		
			<path style="fill:none;stroke:#263238;stroke-width:2;stroke-linecap:round;stroke-linejoin:round;stroke-miterlimit:11.9056;" d="
			M64.412,247.204c0-3.338,2.706-6.044,6.044-6.044h106.816c3.338,0,6.043,2.706,6.043,6.044v68.451
			c0,3.338-2.705,6.043-6.043,6.043H70.456c-3.338,0-6.044-2.705-6.044-6.043V247.204z"/>
		<path style="fill:#FFFFFF;" d="M73.354,247.505c0-0.941,0.763-1.704,1.704-1.704c0.941,0,1.704,0.763,1.704,1.704
			c0,0.942-0.763,1.704-1.704,1.704C74.117,249.21,73.354,248.447,73.354,247.505z"/>
		<path style="fill:#FFFFFF;" d="M79.918,247.505c0-0.941,0.763-1.704,1.704-1.704c0.941,0,1.704,0.763,1.704,1.704
			c0,0.942-0.763,1.704-1.704,1.704C80.681,249.21,79.918,248.447,79.918,247.505z"/>
		<path style="fill:#FFFFFF;" d="M86.482,247.505c0-0.941,0.763-1.704,1.704-1.704c0.941,0,1.704,0.763,1.704,1.704
			c0,0.942-0.763,1.704-1.704,1.704C87.245,249.21,86.482,248.447,86.482,247.505z"/>
		
			<path style="fill:none;stroke:#FFC051;stroke-width:2;stroke-linecap:round;stroke-linejoin:round;stroke-miterlimit:11.9056;" d="
			M75.924,277.007h75.109"/>
		
			<path style="fill:none;stroke:#FFC051;stroke-width:2;stroke-linecap:round;stroke-linejoin:round;stroke-miterlimit:11.9056;" d="
			M76.097,284.65h75.109"/>
		
			<path style="fill:none;stroke:#FFC051;stroke-width:2;stroke-linecap:round;stroke-linejoin:round;stroke-miterlimit:11.9056;" d="
			M99.925,299.937h75.109"/>
		
			<path style="fill:none;stroke:#FFC051;stroke-width:2;stroke-linecap:round;stroke-linejoin:round;stroke-miterlimit:11.9056;" d="
			M100.099,307.581h75.109"/>
		
			<path style="fill:none;stroke:#FFC051;stroke-width:2;stroke-linecap:round;stroke-linejoin:round;stroke-miterlimit:11.9056;" d="
			M76.097,292.294h75.109"/>
		<path style="fill:#FF367C;" d="M76.097,264.372h32.99v4.519h-32.99V264.372z"/>
	</g>
</g>
<g id="Device">
	<g>
		<g id="Layer-19_00000042000941664540030670000016878246427081732482_">
			<path style="fill:#FFFFFF;" d="M151.529,52.361c0-5.877,4.765-10.642,10.642-10.642h174.529c5.878,0,10.641,4.764,10.641,10.642
				v341.71c0,5.878-4.764,10.642-10.641,10.642H162.172c-5.878,0-10.642-4.765-10.642-10.642V52.361z"/>
		</g>
		
			<path style="fill:none;stroke:#263238;stroke-width:2;stroke-linecap:round;stroke-linejoin:round;stroke-miterlimit:11.9056;" d="
			M229.506,55.87c0-0.756,0.835-1.368,1.865-1.368h36.13c1.03,0,1.865,0.613,1.865,1.368v3.732c0,0.756-0.834,1.368-1.865,1.368
			h-36.13c-1.029,0-1.865-0.613-1.865-1.368V55.87z"/>
		
			<path style="fill:none;stroke:#263238;stroke-width:2;stroke-linecap:round;stroke-linejoin:round;stroke-miterlimit:11.9056;" d="
			M151.529,52.361c0-5.877,4.765-10.642,10.642-10.642h174.529c5.878,0,10.641,4.764,10.641,10.642v341.71
			c0,5.878-4.764,10.642-10.641,10.642H162.172c-5.878,0-10.642-4.765-10.642-10.642V52.361z"/>
		
			<rect x="170.529" y="72.934" style="fill:none;stroke:#FF367C;stroke-width:2;stroke-linecap:round;stroke-linejoin:round;stroke-miterlimit:11.9056;" width="157.813" height="312.779"/>
		
			<path style="fill:none;stroke:#263238;stroke-width:2;stroke-linecap:round;stroke-linejoin:round;stroke-miterlimit:11.9056;" d="
			M183.837,57.736c0-2.113,1.713-3.826,3.826-3.826c2.113,0,3.826,1.713,3.826,3.826c0,2.113-1.713,3.826-3.826,3.826
			C185.551,61.562,183.837,59.849,183.837,57.736z"/>
		<g id="Layer-5_00000132802073291891820850000005043694963921348263_">
			
				<path style="fill:none;stroke:#FF367C;stroke-width:2;stroke-linecap:round;stroke-linejoin:round;stroke-miterlimit:11.9056;" d="
				M185.998,241.566c0-1.337,1.084-2.421,2.421-2.421h122.208c1.337,0,2.421,1.085,2.421,2.421v21.659
				c0,1.338-1.084,2.421-2.421,2.421H188.419c-1.337,0-2.421-1.083-2.421-2.421V241.566z"/>
			
				<path style="fill:none;stroke:#FF367C;stroke-width:2;stroke-linecap:round;stroke-linejoin:round;stroke-miterlimit:11.9056;" d="
				M185.825,302.136c0-1.337,1.083-2.421,2.421-2.421h122.208c1.337,0,2.42,1.083,2.42,2.421v21.66c0,1.337-1.083,2.421-2.42,2.421
				H188.245c-1.337,0-2.421-1.083-2.421-2.421V302.136z"/>
		</g>
		<path style="fill:#263238;" d="M188.735,227.797h36.599v6.819h-36.599V227.797z"/>
		<path style="fill:#263238;" d="M188.735,288.812h44.328v6.819h-44.328V288.812z"/>
		<path style="fill:#FF367C;" d="M190.878,249.092h52.649v6.607h-52.649V249.092z"/>
		<path style="fill:#263238;" d="M207.035,162.236c0-2.984,2.419-5.403,5.403-5.403h76.644c2.985,0,5.404,2.419,5.404,5.403v21.307
			c0,2.985-2.419,5.404-5.404,5.404h-76.644c-2.984,0-5.403-2.419-5.403-5.404V162.236z"/>
		<path style="fill:#FF367C;" d="M194.167,312.966c0-1.49,1.208-2.698,2.697-2.698c1.49,0,2.698,1.208,2.698,2.698
			c0,1.489-1.208,2.697-2.698,2.697C195.374,315.663,194.167,314.456,194.167,312.966z"/>
		<path style="fill:#FF367C;" d="M204.337,312.966c0-1.49,1.208-2.698,2.698-2.698c1.489,0,2.697,1.208,2.697,2.698
			c0,1.489-1.208,2.697-2.697,2.697C205.544,315.663,204.337,314.456,204.337,312.966z"/>
		<path style="fill:#FF367C;" d="M214.505,312.966c0-1.49,1.208-2.698,2.697-2.698c1.49,0,2.698,1.208,2.698,2.698
			c0,1.489-1.208,2.697-2.698,2.697C215.712,315.663,214.505,314.456,214.505,312.966z"/>
		<path style="fill:#FF367C;" d="M225.334,312.966c0-1.49,1.208-2.698,2.698-2.698c1.489,0,2.697,1.208,2.697,2.698
			c0,1.489-1.208,2.697-2.697,2.697C226.541,315.663,225.334,314.456,225.334,312.966z"/>
		<path style="fill:#FF367C;" d="M235.99,312.966c0-1.49,1.207-2.698,2.697-2.698c1.489,0,2.697,1.208,2.697,2.698
			c0,1.489-1.208,2.697-2.697,2.697C237.196,315.663,235.99,314.456,235.99,312.966z"/>
		
			<path style="fill:none;stroke:#FFC051;stroke-width:2;stroke-linecap:round;stroke-linejoin:round;stroke-miterlimit:11.9056;" d="
			M225.656,116.97c2.144-13.019,14.437-21.834,27.456-19.689c13.019,2.145,21.834,14.438,19.689,27.457
			c-2.145,13.019-14.437,21.833-27.456,19.689C232.326,142.282,223.511,129.989,225.656,116.97z"/>
		<path style="fill:#263238;" d="M243.527,112.832c0.026-3.167,2.673-5.714,5.911-5.688c3.239,0.026,5.844,2.615,5.818,5.783
			c-0.025,3.168-2.672,5.715-5.911,5.688C246.107,118.589,243.501,116,243.527,112.832z"/>
		<path style="fill:#263238;" d="M249.312,120.855c-6.255-0.051-11.364,5.241-12.048,12.052l23.93,0.193
			C260.62,126.28,255.568,120.905,249.312,120.855z"/>
		<g>
			<path style="fill:#FF367C;" d="M227.879,175.725c0-0.531-0.187-0.941-0.56-1.229c-0.374-0.287-1.047-0.578-2.021-0.871
				c-0.974-0.293-1.749-0.62-2.324-0.979c-1.101-0.691-1.652-1.594-1.652-2.706c0-0.974,0.397-1.776,1.191-2.407
				c0.794-0.631,1.825-0.946,3.092-0.946c0.841,0,1.591,0.155,2.249,0.465c0.659,0.31,1.176,0.751,1.552,1.324
				c0.376,0.572,0.564,1.207,0.564,1.904h-2.092c0-0.631-0.198-1.124-0.593-1.481c-0.396-0.356-0.962-0.535-1.698-0.535
				c-0.686,0-1.219,0.146-1.598,0.441c-0.379,0.293-0.568,0.702-0.568,1.229c0,0.442,0.205,0.811,0.614,1.107
				c0.41,0.296,1.085,0.584,2.025,0.863c0.941,0.279,1.696,0.598,2.266,0.955c0.57,0.356,0.988,0.767,1.254,1.229
				c0.266,0.462,0.398,1.003,0.398,1.623c0,1.007-0.386,1.808-1.158,2.402c-0.771,0.595-1.819,0.893-3.142,0.893
				c-0.874,0-1.678-0.162-2.411-0.485c-0.733-0.324-1.304-0.771-1.71-1.341c-0.407-0.57-0.61-1.234-0.61-1.992h2.1
				c0,0.687,0.227,1.218,0.681,1.594c0.454,0.376,1.104,0.564,1.951,0.564c0.73,0,1.28-0.148,1.647-0.444
				C227.695,176.604,227.879,176.212,227.879,175.725z"/>
			<path style="fill:#FF367C;" d="M234.039,178.838h-2.092v-12.086h2.092V178.838z"/>
			<path style="fill:#FF367C;" d="M245.884,177.27c-0.438,0.569-1.043,1.001-1.818,1.295c-0.774,0.293-1.654,0.439-2.639,0.439
				c-1.014,0-1.91-0.23-2.69-0.689c-0.78-0.459-1.382-1.116-1.805-1.971c-0.424-0.855-0.643-1.852-0.66-2.992v-0.947
				c0-1.826,0.437-3.252,1.311-4.278c0.874-1.026,2.095-1.54,3.66-1.54c1.346,0,2.413,0.333,3.205,1
				c0.791,0.667,1.267,1.626,1.428,2.877h-2.059c-0.232-1.456-1.077-2.184-2.532-2.184c-0.94,0-1.656,0.339-2.146,1.016
				c-0.49,0.678-0.743,1.672-0.76,2.981v0.929c0,1.305,0.275,2.318,0.826,3.04c0.551,0.722,1.315,1.082,2.295,1.082
				c1.073,0,1.837-0.243,2.291-0.73v-2.366h-2.49v-1.594h4.582V177.27z"/>
			<path style="fill:#FF367C;" d="M257.779,178.838h-2.101l-5.388-8.574v8.574h-2.1v-12.086h2.1l5.404,8.607v-8.607h2.084V178.838z"
				/>
			<path style="fill:#FF367C;" d="M266.711,178.838h-2.092v-12.086h2.092V178.838z"/>
			<path style="fill:#FF367C;" d="M278.88,178.838h-2.101l-5.388-8.574v8.574h-2.1v-12.086h2.1l5.404,8.607v-8.607h2.084V178.838z"
				/>
		</g>
	</g>
</g>
<g id="Character">
	<g>
		
			<path style="fill:#FFFFFF;stroke:#263238;stroke-width:2;stroke-linecap:round;stroke-linejoin:round;stroke-miterlimit:11.9056;" d="
			M435.07,449.277l-0.206,22.852l-13.202-0.167l-0.719-9.738c0,0-12.641,9.521-15.236,9.606c-8.498,0.277-35.811,0.905-37.261-0.539
			c-4.433-4.413,3.392-7.311,14.142-11.72c12.968-5.318,23.524-11.307,23.524-11.307"/>
		
			<path style="fill:none;stroke:#FF367C;stroke-width:2;stroke-linecap:round;stroke-linejoin:round;stroke-miterlimit:11.9056;" d="
			M402.346,458.251L392.054,451"/>
		
			<path style="fill:none;stroke:#FF367C;stroke-width:2;stroke-linecap:round;stroke-linejoin:round;stroke-miterlimit:11.9056;" d="
			M397.72,460.236l-10.292-7.251"/>
		
			<path style="fill:#FFFFFF;stroke:#263238;stroke-width:2;stroke-linecap:round;stroke-linejoin:round;stroke-miterlimit:11.9056;" d="
			M370.821,449.277l-0.206,22.852l-13.202-0.167l-0.719-9.738c0,0-12.641,9.521-15.236,9.606
			c-8.498,0.277-35.811,0.905-37.261-0.539c-4.433-4.413,3.392-7.311,14.142-11.72c12.968-5.318,23.524-11.307,23.524-11.307"/>
		
			<path style="fill:none;stroke:#FF367C;stroke-width:2;stroke-linecap:round;stroke-linejoin:round;stroke-miterlimit:11.9056;" d="
			M338.097,458.251L327.805,451"/>
		
			<path style="fill:none;stroke:#FF367C;stroke-width:2;stroke-linecap:round;stroke-linejoin:round;stroke-miterlimit:11.9056;" d="
			M333.471,460.236l-10.292-7.251"/>
		<path style="fill:#FFFFFF;" d="M453.079,302.694c0,0,2.448-27.86,2.798-34.621c0.349-6.761,0.816-24.013,0.816-24.013H433.12
			c0,0,7.149,56.982,7.149,60.046c0,3.064-6.547,14.37-5.106,17.516c1.441,3.146,3.314,4.952,3.314,4.952l0.269-0.085
			c0.203,0.891,0.523,1.566,0.988,1.843c2.031,1.211,3.24-1.152,3.24-1.152l0.09-0.64c0.246,1.044,0.641,1.871,1.197,2.305
			c2.244,1.748,3.712-0.333,3.712-0.333l0.035-0.494c0.746,0.949,1.723,1.617,2.87,1.891c1.807,0.432,3.498-0.588,4.902-3.173
			c0,0,1.086-2.841,2.112-6.056C459.496,313.695,453.079,302.694,453.079,302.694z"/>
		<path style="fill:#FF367C;" d="M452.585,318.491l-1.109,3.944c0.001,0,4.34,1.207,4.954,6.257
			c0.518,4.255,0.36,11.928,0.294,14.632l-23.334-0.13l-1.402,33.534l24.931,1.988l10.298-4.073l-4.563-31.286h-1.922
			c0.077-2.811,0.27-11.13-0.424-16.62C459.488,320.257,452.585,318.492,452.585,318.491z"/>
		
			<path style="fill:none;stroke:#263238;stroke-width:2;stroke-linecap:round;stroke-linejoin:round;stroke-miterlimit:11.9056;" d="
			M458.148,345.836l-2.369,30.577"/>
		
			<path style="fill:none;stroke:#263238;stroke-width:2;stroke-linecap:round;stroke-linejoin:round;stroke-miterlimit:11.9056;" d="
			M455.779,326.734c-1.405,2.585-3.095,3.605-4.902,3.173c-2.849-0.681-4.725-3.702-4.315-7.779c0.41-4.077,2.379-7.241,4.423-6.373
			c2.044,0.867,0.31,6.75,0.31,6.75"/>
		
			<path style="fill:none;stroke:#263238;stroke-width:2;stroke-linecap:round;stroke-linejoin:round;stroke-miterlimit:11.9056;" d="
			M438.477,326.574c0,0-1.873-1.806-3.314-4.952c-1.44-3.146,5.106-14.452,5.106-17.516c0-3.064-7.149-60.046-7.149-60.046h23.572
			c0,0-0.466,17.252-0.816,24.013c-0.35,6.761-2.798,34.621-2.798,34.621s6.417,11.001,4.812,17.984
			c-0.08,0.252-0.161,0.502-0.242,0.748"/>
		
			<path style="fill:none;stroke:#263238;stroke-width:2;stroke-linecap:round;stroke-linejoin:round;stroke-miterlimit:11.9056;" d="
			M448.823,316.365c0,0-1.703-3.676-4.079-0.538c-2.375,3.137-2.727,11.269-0.484,13.017c2.244,1.748,3.712-0.333,3.712-0.333"/>
		
			<path style="fill:none;stroke:#263238;stroke-width:2;stroke-linecap:round;stroke-linejoin:round;stroke-miterlimit:11.9056;" d="
			M444.621,315.4c0,0-2.554-2.169-4.421,0.494c-1.868,2.664-2.499,11.228-0.467,12.438c2.031,1.211,3.24-1.152,3.24-1.152"/>
		<path style="fill:#FF367C;" d="M410.339,150.941c26.867,0,57.409,18.926,54.867,99.548c3.404,3.404,3.244,11.234,0.388,13.277
			c-2.856,2.043-25.963,1.66-25.963,1.66l-6.511-40.213L410.339,150.941z"/>
		<g>
			<path style="opacity:0.2;fill:#FFFFFF;" d="M460.664,226.142c1.518,0,2.934-0.421,4.152-1.143
				c-0.362-5.275-0.903-10.197-1.606-14.788c-0.802-0.263-1.656-0.41-2.546-0.41c-4.512,0-8.17,3.658-8.17,8.17
				C452.494,222.484,456.152,226.142,460.664,226.142z"/>
			<path style="opacity:0.2;fill:#FFFFFF;" d="M441.005,257.212c0-2.912-1.528-5.462-3.822-6.909l1.959,12.102
				C440.306,260.994,441.005,259.185,441.005,257.212z"/>
			<path style="opacity:0.2;fill:#FFFFFF;" d="M466.136,263.268c2.317-2.593,2.243-9.606-0.93-12.779
				c0.001-0.023,0.001-0.044,0.002-0.067c-1.299-0.871-2.861-1.38-4.543-1.38c-4.512,0-8.17,3.658-8.17,8.17
				c0,3.716,2.483,6.847,5.878,7.838c3.206-0.23,5.854-0.587,6.955-1.134C465.611,263.718,465.879,263.5,466.136,263.268z"/>
			<path style="opacity:0.2;fill:#FFFFFF;" d="M457.047,186.049c-1.311-3.392-2.75-6.487-4.301-9.3
				c-0.159,0.636-0.252,1.297-0.252,1.982C452.494,181.943,454.352,184.714,457.047,186.049z"/>
			
				<ellipse transform="matrix(0.9872 -0.1598 0.1598 0.9872 -32.2251 74.5395)" style="opacity:0.2;fill:#FFFFFF;" cx="447.418" cy="237.664" rx="8.17" ry="8.17"/>
			<path style="opacity:0.2;fill:#FFFFFF;" d="M446.286,167.265c-2.19-2.598-4.507-4.829-6.917-6.729
				C439.954,164.035,442.756,166.775,446.286,167.265z"/>
			<path style="opacity:0.2;fill:#FFFFFF;" d="M426.321,203.047c0.905-1.315,1.437-2.907,1.437-4.624c0-3.458-2.152-6.408-5.187-7.6
				L426.321,203.047z"/>
			<circle style="opacity:0.2;fill:#FFFFFF;" cx="447.418" cy="198.423" r="8.17"/>
			<path style="opacity:0.2;fill:#FFFFFF;" d="M414.922,165.884c1.323,0.923,2.93,1.469,4.666,1.469c4.512,0,8.17-3.658,8.17-8.17
				c0-2.462-1.093-4.663-2.816-6.161c-2.571-0.778-5.168-1.315-7.76-1.648c-2.399,0.738-4.32,2.554-5.215,4.88L414.922,165.884z"/>
			<circle style="opacity:0.2;fill:#FFFFFF;" cx="432.835" cy="178.731" r="8.17"/>
			<path style="opacity:0.2;fill:#FFFFFF;" d="M441.005,217.972c0-4.512-3.658-8.17-8.17-8.17c-1.496,0-2.894,0.409-4.1,1.111
				l4.386,14.3l0.147,0.908C437.577,225.894,441.005,222.338,441.005,217.972z"/>
		</g>
		<path style="fill:#263238;" d="M379.418,233.468c0,0-34.94,89.827-37.527,103.635c-2.587,13.81-16.126,112.535-16.126,112.535
			h54.801l7.729-103.802l6.057-19.679l-1.469,124.625H442.9l-1.351-171.358c0,0,5.243-8.719,5.07-21.352
			c-0.173-12.634-11.253-27.873-11.253-27.873L379.418,233.468z"/>
		
			<path style="fill:none;stroke:#FF367C;stroke-width:2;stroke-linecap:round;stroke-linejoin:round;stroke-miterlimit:11.9056;" d="
			M424.899,255.192c0,0-1.215,11.412-10.255,15.962c-9.038,4.55-18.042,2.745-18.042,2.745"/>
		
			<path style="fill:none;stroke:#FF367C;stroke-width:2;stroke-linecap:round;stroke-linejoin:round;stroke-miterlimit:11.9056;" d="
			M410.099,273.215l-21.804,72.622l-7.729,103.802"/>
		
			<path style="fill:none;stroke:#FF367C;stroke-width:2;stroke-linecap:round;stroke-linejoin:round;stroke-miterlimit:11.9056;" d="
			M392.882,241.353c0,0-32.318,81.265-33.815,89.145c-1.498,7.881-15.8,109.914-15.8,109.914"/>
		<path style="fill:#FFFFFF;" d="M301.794,173.854c-4.47-2.94-11.624-7.476-17.395-7.472c-3.642,0.002-13.703-2.721-15.228,2.704
			c-1,3.556,9.653,4.249,12.052,4.88c1.47,0.387,3.047,0.224,4.129,0.405c2.863,0.479,4.045,0.797,4.045,0.797
			s-5.147-1.535-9.102-0.917c-5.853,0.915-6.463,5.716,1.613,6.511c2.864,0.282,3.922,0.606,3.922,0.606s-2.774-0.652-7.294-0.931
			c-4.521-0.281-3.624,5.886,1.923,6.68c4.593,0.657,6.347,1.728,6.347,1.728s3.428,2.248,7.072,3.684
			c3.644,1.436,7.503,2.062,7.503,2.062s30.483,29.024,42.571,34.351c12.088,5.326,31.925-18.007,31.925-18.007l-18.497-20.097
			l-11.662,10.488l-34.07-22.23c0,0-3.512-8.415-5.21-9.959c-11.892-10.823-13.887-10.58-15.048-9.4
			c-0.569,0.58-0.726,5.429,2.023,8.794C296.26,172.013,302.02,174.003,301.794,173.854z"/>
		
			<path style="fill:none;stroke:#263238;stroke-width:2;stroke-linecap:round;stroke-linejoin:round;stroke-miterlimit:11.9056;" d="
			M301.794,173.854c-4.47-2.94-11.624-7.476-17.395-7.472c-3.642,0.002-13.703-2.721-15.228,2.704c-1,3.556,9.653,4.249,12.052,4.88
			c1.47,0.387,3.047,0.224,4.129,0.405c2.863,0.479,4.045,0.797,4.045,0.797s-5.147-1.535-9.102-0.917
			c-5.853,0.915-6.463,5.716,1.613,6.511c2.864,0.282,3.922,0.606,3.922,0.606s-2.774-0.652-7.294-0.931
			c-4.521-0.281-3.624,5.886,1.923,6.68c4.593,0.657,6.347,1.728,6.347,1.728s3.428,2.248,7.072,3.684
			c3.644,1.436,7.503,2.062,7.503,2.062s30.483,29.024,42.571,34.351c12.088,5.326,31.925-18.007,31.925-18.007l-18.497-20.097
			l-11.662,10.488l-34.07-22.23c0,0-3.512-8.415-5.21-9.959c-11.892-10.823-13.887-10.58-15.048-9.4
			c-0.569,0.58-0.726,5.429,2.023,8.794C296.26,172.013,302.02,174.003,301.794,173.854z"/>
		
			<path style="fill:#FFFFFF;stroke:#263238;stroke-width:2;stroke-linecap:round;stroke-linejoin:round;stroke-miterlimit:11.9056;" d="
			M397.244,132.377c-0.423-7.722,5.494-14.326,13.216-14.749c7.722-0.423,14.326,5.494,14.749,13.216
			c0.423,7.722-5.494,14.326-13.216,14.749C404.271,146.017,397.668,140.1,397.244,132.377z"/>
		<path style="fill:#FF367C;" d="M408.81,133.126c0.18-0.853,1.012-1.4,1.855-1.221c0.845,0.178,1.383,1.015,1.202,1.868
			c-0.181,0.853-1.012,1.4-1.855,1.221C409.167,134.816,408.629,133.979,408.81,133.126z"/>
		<path style="fill:#263238;" d="M398.885,125.884c0.163-0.769,0.919-1.261,1.687-1.098c0.77,0.163,1.261,0.919,1.098,1.688
			c-0.163,0.769-0.918,1.261-1.687,1.097C399.213,127.409,398.722,126.654,398.885,125.884z"/>
		<path style="fill:#263238;" d="M406.621,128.552c0.163-0.77,0.918-1.261,1.687-1.098c0.77,0.163,1.261,0.919,1.098,1.687
			c-0.163,0.77-0.919,1.261-1.687,1.098C406.949,130.077,406.458,129.322,406.621,128.552z"/>
		
			<path style="fill:none;stroke:#263238;stroke-width:2;stroke-linecap:round;stroke-linejoin:round;stroke-miterlimit:11.9056;" d="
			M407.477,134.501c0,0-0.887,2.035-2.384,2.46c-1.497,0.425-2.56-0.538-2.56-0.538"/>
		
			<path style="fill:none;stroke:#263238;stroke-width:2;stroke-linecap:round;stroke-linejoin:round;stroke-miterlimit:11.9056;" d="
			M403.958,126.627l-2.902,5.053l2.953,0.657"/>
		<path style="fill:#FFC051;" d="M380.566,226.399l57.288-1.273V234l-57.288,1.274V226.399z"/>
		<path style="fill:#263238;" d="M429.67,107.302c-4.664,0-8.396,3.242-9.533,7.548c-1.731-1.267-3.797-2.519-6.356-3.147
			c-6.443-1.584-15.442-0.1-17.661,5.347c-2.219,5.448,5.382,7.684,9.045,6.998c3.663-0.686,6.691-3.056,6.691-3.056
			s-0.134,4.146,2.536,10.053c2.671,5.906,7.731,10.633,7.731,10.633s6.339-3.625,6.876-10.267c0.118-1.459-0.115-2.875-0.429-4.216
			c0.38,0.043,0.71,0.214,1.1,0.214c5.554,0,10.053-4.499,10.053-10.053C439.723,111.802,435.224,107.302,429.67,107.302z"/>
		<path style="fill:#263238;" d="M437.8,105.231c0-4.494,3.643-8.138,8.138-8.138c4.495,0,8.137,3.643,8.137,8.138
			c0,4.494-3.643,8.138-8.137,8.138C441.443,113.369,437.8,109.726,437.8,105.231z"/>
		<path style="fill:#FF367C;" d="M456.377,198.517c0-26.29-21.312-47.603-47.603-47.603c-26.29,0-47.603,21.312-47.603,47.603
			c0,11.533,4.103,22.107,10.927,30.345v17.258h74.406v-18.593C452.69,219.495,456.377,209.439,456.377,198.517z"/>
		<path style="opacity:0.2;fill:#FFFFFF;" d="M439.248,198.423c0-4.512,3.658-8.17,8.17-8.17s8.17,3.658,8.17,8.17
			s-3.658,8.17-8.17,8.17S439.248,202.936,439.248,198.423z M419.588,245.834c4.512,0,8.17-3.658,8.17-8.17
			c0-4.512-3.658-8.17-8.17-8.17s-8.17,3.658-8.17,8.17C411.418,242.176,415.076,245.834,419.588,245.834z M441.005,217.972
			c0-4.512-3.658-8.17-8.17-8.17c-4.512,0-8.17,3.658-8.17,8.17c0,4.512,3.658,8.17,8.17,8.17
			C437.347,226.142,441.005,222.484,441.005,217.972z M369.005,178.731c0,4.512,3.658,8.17,8.17,8.17c4.512,0,8.17-3.658,8.17-8.17
			s-3.658-8.17-8.17-8.17C372.663,170.561,369.005,174.219,369.005,178.731z M444.147,166.667c-1.294-1.436-2.679-2.785-4.136-4.054
			C440.848,164.418,442.32,165.867,444.147,166.667z M361.817,206.308c0.675,0.18,1.38,0.286,2.112,0.286
			c4.512,0,8.17-3.658,8.17-8.17s-3.658-8.17-8.17-8.17c-0.719,0-1.412,0.102-2.076,0.277c-0.439,2.598-0.68,5.264-0.68,7.988
			C361.172,201.171,361.399,203.772,361.817,206.308z M452.53,217.259c0.572-1.333,1.083-2.697,1.534-4.089
			C453.213,214.338,452.662,215.737,452.53,217.259z M446.505,229.548c-4.082,0.454-7.257,3.913-7.257,8.116
			c0,4.203,3.175,7.662,7.257,8.116V229.548z M452.582,179.868c0.173,1.239,0.617,2.391,1.28,3.387
			C453.474,182.108,453.054,180.975,452.582,179.868z M396.835,178.731c0,4.512,3.658,8.17,8.17,8.17c4.512,0,8.17-3.658,8.17-8.17
			s-3.658-8.17-8.17-8.17C400.492,170.561,396.835,174.219,396.835,178.731z M383.588,159.183c0,4.512,3.658,8.17,8.17,8.17
			s8.17-3.658,8.17-8.17c0-2.75-1.363-5.177-3.445-6.657c-4.58,1.221-8.885,3.107-12.812,5.55
			C383.623,158.438,383.588,158.806,383.588,159.183z M432.835,186.901c4.512,0,8.17-3.658,8.17-8.17s-3.658-8.17-8.17-8.17
			c-4.512,0-8.17,3.658-8.17,8.17S428.322,186.901,432.835,186.901z M411.418,159.183c0,4.512,3.658,8.17,8.17,8.17
			s8.17-3.658,8.17-8.17c0-1.902-0.655-3.648-1.745-5.036c-2.992-1.163-6.129-2.034-9.38-2.575
			C413.584,152.757,411.418,155.714,411.418,159.183z M391.758,206.594c4.512,0,8.17-3.658,8.17-8.17s-3.658-8.17-8.17-8.17
			s-8.17,3.658-8.17,8.17S387.246,206.594,391.758,206.594z M385.345,217.972c0-4.512-3.658-8.17-8.17-8.17
			c-4.512,0-8.17,3.658-8.17,8.17c0,4.512,3.658,8.17,8.17,8.17C381.687,226.142,385.345,222.484,385.345,217.972z M391.758,245.834
			c4.512,0,8.17-3.658,8.17-8.17c0-4.512-3.658-8.17-8.17-8.17s-8.17,3.658-8.17,8.17
			C383.588,242.176,387.246,245.834,391.758,245.834z M411.418,198.423c0,4.512,3.658,8.17,8.17,8.17s8.17-3.658,8.17-8.17
			s-3.658-8.17-8.17-8.17S411.418,193.911,411.418,198.423z M413.175,217.972c0-4.512-3.658-8.17-8.17-8.17
			c-4.512,0-8.17,3.658-8.17,8.17c0,4.512,3.658,8.17,8.17,8.17C409.517,226.142,413.175,222.484,413.175,217.972z"/>
		<path style="fill:#FF367C;" d="M379.91,219.51c0,0-21.509,10.374-31.869,11.608c-10.36,1.234-23.942-9.566-27.346-14.111
			c-3.404-4.545,7.475-27.251,11.404-28.987c3.929-1.736,8.851,6.436,8.851,6.436s32.17-43.542,67.825-43.542"/>
		<path style="opacity:0.2;fill:#FFFFFF;" d="M382.977,212.222l-3.067,7.288c0,0-3.701,1.784-8.767,3.959
			c-1.324-1.452-2.139-3.378-2.139-5.498c0-4.512,3.658-8.17,8.17-8.17C379.444,209.801,381.497,210.728,382.977,212.222z
			 M349.345,209.801c-4.512,0-8.17,3.658-8.17,8.17c0,4.512,3.658,8.17,8.17,8.17s8.17-3.658,8.17-8.17
			C357.515,213.459,353.857,209.801,349.345,209.801z M383.588,159.183c0,4.512,3.658,8.17,8.17,8.17s8.17-3.658,8.17-8.17
			c0-2.734-1.348-5.148-3.41-6.631c-4.372,1.136-8.634,2.808-12.728,4.842C383.662,157.97,383.588,158.567,383.588,159.183z
			 M391.758,190.253c-4.512,0-8.17,3.658-8.17,8.17c0,2.387,1.03,4.528,2.662,6.021l5.962-14.169
			C392.061,190.268,391.912,190.253,391.758,190.253z M347.41,186.661c0.621,0.151,1.267,0.24,1.935,0.24
			c4.512,0,8.17-3.658,8.17-8.17c0-0.751-0.11-1.476-0.3-2.167C353.33,180.226,350.015,183.734,347.41,186.661z M396.835,178.731
			c0,0.169,0.015,0.334,0.025,0.5l2.811-6.679C397.936,174.049,396.835,176.26,396.835,178.731z M377.175,186.901
			c4.512,0,8.17-3.658,8.17-8.17s-3.658-8.17-8.17-8.17c-4.512,0-8.17,3.658-8.17,8.17S372.663,186.901,377.175,186.901z
			 M321.515,209.801c-0.271,0-0.537,0.015-0.801,0.04c-0.806,3.231-0.966,5.902-0.019,7.166c1.212,1.618,3.716,4.028,6.903,6.406
			c1.294-1.446,2.088-3.349,2.088-5.442C329.686,213.459,326.028,209.801,321.515,209.801z M327.929,198.423
			c0,4.512,3.658,8.17,8.17,8.17c4.512,0,8.17-3.658,8.17-8.17c0-2.12-0.814-4.045-2.138-5.496c-0.772,0.976-1.181,1.53-1.181,1.53
			s-1.295-2.147-3.086-4.007c-0.569-0.126-1.158-0.197-1.765-0.197C331.587,190.253,327.929,193.911,327.929,198.423z
			 M355.758,198.423c0,4.512,3.658,8.17,8.17,8.17c4.512,0,8.17-3.658,8.17-8.17s-3.658-8.17-8.17-8.17
			C359.416,190.253,355.758,193.911,355.758,198.423z"/>
		
			<polyline style="fill:none;stroke:#263238;stroke-width:2;stroke-linecap:round;stroke-linejoin:round;stroke-miterlimit:11.9056;" points="
			446.505,202.234 446.505,246.12 372.099,246.12 		"/>
		
			<path style="fill:none;stroke:#263238;stroke-width:2;stroke-linecap:round;stroke-linejoin:round;stroke-miterlimit:11.9056;" d="
			M379.91,219.51c0,0-21.509,10.374-31.869,11.608c-10.36,1.234-23.942-9.566-27.346-14.111
			c-3.404-4.545,7.475-27.251,11.404-28.987c3.929-1.736,8.851,6.436,8.851,6.436s32.17-43.542,67.825-43.542"/>
		
			<line style="fill:none;stroke:#263238;stroke-width:2;stroke-linecap:round;stroke-linejoin:round;stroke-miterlimit:11.9056;" x1="340.95" y1="194.456" x2="331.248" y2="218.659"/>
		
			<line style="fill:none;stroke:#263238;stroke-width:2;stroke-linecap:round;stroke-linejoin:round;stroke-miterlimit:11.9056;" x1="331.248" y1="198.517" x2="324.78" y2="215.255"/>
		
			<line style="fill:none;stroke:#263238;stroke-width:2;stroke-linecap:round;stroke-linejoin:round;stroke-miterlimit:11.9056;" x1="460.269" y1="251.17" x2="439.043" y2="251.17"/>
		
			<path style="fill:none;stroke:#263238;stroke-width:2;stroke-linecap:round;stroke-linejoin:round;stroke-miterlimit:11.9056;" d="
			M454.993,258.149c-0.511-0.17-16.17,0-16.17,0"/>
	</g>
</g>
</svg>
